<svg width="393" height="613" viewBox="0 0 393 613" fill="none" xmlns="http://www.w3.org/2000/svg">
<path d="M392.067 420.313C386.741 446.388 368.625 488.355 332.919 503.968C341.227 511.942 349.67 523.353 357.945 539.457C329.947 547.591 270.797 549.629 258.187 492.708C262.451 494.425 271.941 489.609 284.403 487.683C290.166 461.651 303.514 419.465 392.067 420.313Z" fill="#9CD860"/>
<path d="M0 446.826C119.597 445.681 102.018 523.029 113.843 533.066C40.9253 552.952 7.56532 483.859 0 446.826Z" fill="#9CD860"/>
<path d="M134.594 39.375C163.898 40.0619 218.798 58.1945 203.963 125.229C212.205 141.713 223.743 182.509 203.963 213.828C210.144 209.358 225.117 199.287 235.557 194.761C236.015 166.318 256.574 114.788 335.146 136.217C333.086 166.437 311.108 222.07 239.678 202.839C222.278 210.623 192.536 229.644 196.189 268.424C199.843 307.204 204.652 331.262 208.772 336.956H174.272C177.333 330.848 181.729 311.512 181.729 282.869C181.729 247.419 186.849 225.985 199.844 194.761C209.809 170.816 202.482 141.779 196.189 129.6C169.247 130.889 119.209 114.651 134.594 39.375Z" fill="#9CD860"/>
<path d="M116.162 347.452C87.0258 351.555 68.6133 364.418 63.0491 370.336L324.005 370.336C271.104 316.944 255.446 310.301 233.308 319.644C201.485 331.188 196.351 330.12 174.334 323.778C141.454 314.309 134.372 341.928 116.162 347.452Z" fill="url(#paint0_linear_181_171)"/>
<path d="M202.736 355.87C157.888 325.007 136.429 342.608 93.0288 370.336H255.781C242.921 368.327 214.309 362.621 202.736 355.87Z" fill="black" fill-opacity="0.1"/>
<path d="M234.375 326.014C250.101 311.428 285.137 336.433 291.264 353.28C283.4 365.711 281.39 347.163 253.59 344.397C242.849 343.329 229.788 340.93 234.375 326.014Z" fill="black" fill-opacity="0.1"/>
<path d="M280.896 505.356C294.538 508.437 321.597 520.612 333.421 526.314C310.629 530.873 288.908 514.242 280.896 505.356Z" fill="#82B74E"/>
<path d="M26.9414 470.314C57.0425 471.698 79.1769 499.408 86.4814 513.09C70.2797 504.953 40.0372 481.183 26.9414 470.314Z" fill="#82B74E"/>
<path d="M365.126 443.802C352.03 454.67 321.788 478.441 305.586 486.577C312.89 472.895 335.025 445.185 365.126 443.802Z" fill="#82B74E"/>
<path d="M305.586 146.579C293.093 158.135 264.172 183.496 248.431 192.491C254.99 178.437 275.603 149.578 305.586 146.579Z" fill="#82B74E"/>
<path d="M165.039 70.6836C186.027 86.4249 194.398 110.973 195.96 121.28C180.968 103.29 169.099 80.0536 165.039 70.6836Z" fill="#82B74E"/>
<path fill-rule="evenodd" clip-rule="evenodd" d="M220.712 0C222.255 0 223.507 1.2514 223.507 2.79492C223.507 3.55826 223.199 4.24861 222.703 4.75293L270.069 77.1064C270.281 77.0554 270.501 77.0264 270.728 77.0264C272.225 77.0264 273.444 78.2052 273.515 79.6855L341.61 88.6104C341.967 87.4768 343.026 86.6553 344.277 86.6553C345.821 86.6553 347.072 87.9059 347.072 89.4492C347.072 90.2227 346.758 90.9227 346.25 91.4287L378.73 163.782C378.965 163.718 379.212 163.682 379.468 163.682C381.011 163.682 382.263 164.933 382.263 166.477C382.263 168.02 381.011 169.271 379.468 169.271C379.008 169.271 378.575 169.158 378.192 168.961L315.098 244.912C315.644 245.422 315.987 246.147 315.987 246.953C315.987 247.595 315.767 248.184 315.403 248.656L355.255 300.653C355.393 300.632 355.535 300.618 355.68 300.618C357.223 300.618 358.475 301.87 358.475 303.413C358.475 304.897 357.318 306.106 355.857 306.198L335.234 369.205L335.121 369.549H54.624L54.502 369.227L40.6562 332.796C40.5241 332.815 40.3894 332.829 40.252 332.829C38.7085 332.829 37.457 331.578 37.457 330.034C37.457 328.491 38.7085 327.239 40.252 327.239C40.8009 327.239 41.3113 327.4 41.7432 327.674L76.3525 284.719C76.0451 284.27 75.8644 283.728 75.8643 283.143C75.8643 281.638 77.0538 280.413 78.5439 280.353L97.6904 202.664C96.6744 202.246 95.959 201.247 95.959 200.08C95.9591 199.447 96.1708 198.865 96.5254 198.396L41.6543 131.206C41.2417 131.446 40.7638 131.587 40.252 131.587C38.7085 131.587 37.457 130.335 37.457 128.792C37.4572 127.249 38.7086 125.998 40.252 125.998C40.4288 125.998 40.6018 126.015 40.7695 126.047L66.4062 61.7656C65.7195 61.2564 65.2725 60.4421 65.2725 59.5215C65.2726 57.9781 66.5239 56.7266 68.0674 56.7266C68.5296 56.7266 68.9646 56.8413 69.3486 57.04L106.304 17.9785C106.02 17.5415 105.855 17.0215 105.854 16.4619C105.854 14.9184 107.106 13.667 108.649 13.667C109.926 13.6672 111 14.5234 111.334 15.6924L217.925 2.64551C218.002 1.17142 219.219 0.000191508 220.712 0ZM42.4805 328.353C42.8344 328.821 43.0469 329.402 43.0469 330.034C43.0469 331.086 42.4645 332.001 41.6055 332.478L55.3135 368.549H132.214L79.6143 285.766C79.3159 285.874 78.9951 285.936 78.6592 285.937C78.0648 285.937 77.5145 285.75 77.0615 285.434L42.4805 328.353ZM160.568 286.135C160.468 287.571 159.286 288.705 157.83 288.729L133.798 368.549H174.815L218.987 289.853C218.428 289.408 218.044 288.756 217.952 288.011L160.568 286.135ZM221.855 290.219C221.509 290.372 221.127 290.46 220.724 290.46C220.426 290.46 220.138 290.412 219.869 290.325L175.962 368.549H270.402L221.855 290.219ZM222.743 289.592C222.723 289.613 222.703 289.635 222.683 289.655L271.579 368.549H333.198L279.677 330.289C279.17 330.806 278.465 331.128 277.684 331.128C276.14 331.128 274.889 329.877 274.889 328.333C274.889 327.882 274.997 327.457 275.187 327.08L222.743 289.592ZM314.659 249.328C314.232 249.592 313.731 249.748 313.192 249.748C312.891 249.748 312.601 249.699 312.329 249.61L279.312 326.064C280.017 326.572 280.478 327.398 280.479 328.333C280.479 328.735 280.391 329.116 280.238 329.461L334.495 368.245L354.843 306.079C353.708 305.723 352.885 304.665 352.885 303.413C352.885 302.386 353.439 301.491 354.265 301.005L314.659 249.328ZM81.4199 283.55C81.3201 284.232 80.9766 284.832 80.4775 285.261L132.96 367.858L156.836 288.562C155.765 288.175 154.996 287.156 154.989 285.953L81.4199 283.55ZM223.432 286.989C223.485 287.206 223.519 287.432 223.519 287.665C223.519 288.053 223.439 288.422 223.296 288.758L275.79 326.281C276.288 325.821 276.952 325.538 277.684 325.538C277.934 325.538 278.176 325.574 278.407 325.636L311.445 249.132C311.116 248.868 310.85 248.531 310.668 248.146L223.432 286.989ZM170.693 252.384C170.24 252.701 169.689 252.89 169.094 252.89C168.937 252.89 168.784 252.873 168.634 252.848L159.365 283.633C159.884 283.989 160.275 284.516 160.46 285.132L218.008 287.011C218.061 286.787 218.141 286.574 218.245 286.375L170.693 252.384ZM265.15 179.542C264.902 179.615 264.639 179.655 264.367 179.655C264.17 179.655 263.978 179.635 263.792 179.596L222.254 285.328C222.556 285.526 222.816 285.781 223.021 286.077L310.408 247.167C310.403 247.096 310.397 247.025 310.397 246.953C310.397 246.117 310.766 245.37 311.348 244.857L265.15 179.542ZM223.337 209.549C223.452 209.854 223.519 210.185 223.519 210.53C223.518 212.073 222.267 213.324 220.724 213.324C220.123 213.324 219.568 213.134 219.112 212.812C219.082 212.835 219.051 212.859 219.021 212.883C217.677 213.916 215.754 215.394 213.438 217.174C208.804 220.733 202.594 225.501 196.288 230.327C189.982 235.154 183.578 240.041 178.56 243.843C175.751 245.97 173.365 247.762 171.672 249.016C171.811 249.348 171.889 249.712 171.889 250.095C171.889 250.677 171.71 251.217 171.405 251.664L218.858 285.586C219.353 285.142 220.006 284.87 220.724 284.87C220.933 284.87 221.136 284.895 221.332 284.938L262.866 179.216C262.797 179.172 262.73 179.124 262.665 179.074L223.337 209.549ZM81.3574 282.427C81.3681 282.467 81.3798 282.508 81.3887 282.549L155.168 284.958C155.565 283.898 156.585 283.143 157.784 283.143C158.011 283.143 158.232 283.172 158.443 283.224L167.691 252.509C167.342 252.306 167.041 252.031 166.81 251.702L81.3574 282.427ZM100.535 202.233C100.051 202.634 99.4302 202.875 98.7529 202.875C98.7251 202.875 98.6975 202.871 98.6699 202.87L79.5391 280.49C80.1053 280.678 80.5891 281.042 80.9297 281.518L166.39 250.791C166.332 250.568 166.299 250.335 166.299 250.095C166.299 249.826 166.339 249.567 166.409 249.321L100.535 202.233ZM101.542 199.979C101.543 200.012 101.548 200.046 101.548 200.08C101.548 200.584 101.412 201.056 101.179 201.464L166.862 248.416C167.059 248.155 167.298 247.93 167.572 247.752L150.447 185.912C150.389 185.916 150.33 185.922 150.271 185.922C149.344 185.922 148.525 185.468 148.017 184.773L101.542 199.979ZM203.33 165.563C203.806 166.065 204.1 166.741 204.1 167.486C204.1 169.03 202.849 170.281 201.306 170.281C201.182 170.281 201.06 170.27 200.94 170.254L170.468 247.662C170.712 247.8 170.932 247.974 171.123 248.177C172.794 246.939 175.155 245.167 177.956 243.046C182.973 239.246 189.374 234.359 195.68 229.532C201.985 224.706 208.196 219.94 212.829 216.381C215.143 214.603 217.063 213.126 218.406 212.093C218.105 211.647 217.929 211.109 217.929 210.53C217.929 208.987 219.18 207.735 220.724 207.735C220.775 207.735 220.825 207.739 220.876 207.742L235.496 126.378C235.288 126.322 235.088 126.246 234.901 126.146L203.33 165.563ZM153.064 183.123L153.065 183.127C153.065 184.261 152.389 185.235 151.418 185.673L168.503 247.363C168.693 247.322 168.891 247.3 169.094 247.3C169.24 247.3 169.383 247.314 169.522 247.336L199.985 169.949C199.318 169.591 198.815 168.969 198.611 168.223L153.064 183.123ZM267.081 177.515C266.928 178.152 266.558 178.702 266.052 179.086L312.206 244.34C312.513 244.224 312.845 244.158 313.192 244.158C313.567 244.158 313.924 244.233 314.251 244.367L377.398 168.352C377.148 168.076 376.953 167.75 376.828 167.391L267.081 177.515ZM237.485 126.176C237.183 126.329 236.85 126.43 236.497 126.464L221.85 207.974C222.223 208.138 222.552 208.382 222.818 208.685L261.992 178.33C261.727 177.903 261.572 177.4 261.572 176.86C261.572 176.093 261.881 175.399 262.382 174.894L237.485 126.176ZM110.139 123.81C109.873 123.978 109.578 124.103 109.261 124.174L99.6602 197.438C100.414 197.697 101.022 198.267 101.329 198.997L147.577 183.866C147.513 183.631 147.476 183.383 147.476 183.127C147.476 182.403 147.753 181.745 148.205 181.248L110.139 123.81ZM43.041 128.903C43.0165 129.53 42.7882 130.103 42.417 130.558L97.2637 197.718C97.6734 197.459 98.154 197.304 98.6709 197.289L108.247 124.211C107.149 124.053 106.259 123.259 105.962 122.213L43.041 128.903ZM189.212 80.4014C188.945 81.6663 187.823 82.616 186.479 82.6162C186.366 82.6162 186.255 82.6067 186.146 82.5938L151.781 180.778C152.278 181.099 152.665 181.571 152.879 182.131L198.524 167.197C198.669 165.789 199.86 164.691 201.306 164.691C201.742 164.691 202.154 164.794 202.522 164.973L234.122 125.52C233.693 125.028 233.432 124.387 233.432 123.684C233.432 122.14 234.682 120.889 236.226 120.889C236.709 120.889 237.164 121.012 237.561 121.228L268.979 82C268.486 81.6033 268.129 81.0436 267.993 80.4014H189.212ZM111.309 67.3037C111.004 68.2482 110.212 68.9721 109.229 69.1797L109.604 118.824C110.677 119.215 111.444 120.241 111.444 121.449C111.444 122.078 111.233 122.656 110.882 123.123L149.001 180.638C149.382 180.443 149.813 180.332 150.271 180.332C150.472 180.332 150.667 180.354 150.856 180.395L185.188 82.2988C184.318 81.845 183.719 80.949 183.688 79.9082L111.309 67.3037ZM345.412 92.001C345.065 92.1556 344.682 92.2441 344.277 92.2441C343.908 92.2441 343.555 92.1705 343.232 92.04L266.676 175.286C266.919 175.642 267.08 176.056 267.137 176.504L376.677 166.399C376.701 165.5 377.149 164.71 377.829 164.216L345.412 92.001ZM273.387 80.6777C273.115 81.5221 272.453 82.1889 271.613 82.4697L264.896 174.117C265.291 174.193 265.656 174.352 265.973 174.575L342.376 91.4941C341.862 91.0161 341.53 90.3487 341.49 89.6016L273.387 80.6777ZM238.337 121.856C238.762 122.347 239.02 122.984 239.021 123.684C239.021 124.407 238.744 125.063 238.293 125.56L263.21 174.318C263.425 174.22 263.654 174.149 263.894 174.108L270.601 82.6094C270.348 82.598 270.104 82.5556 269.873 82.4814L238.337 121.856ZM69.2168 62.0664C68.8659 62.2252 68.4776 62.3164 68.0674 62.3164C67.8027 62.3164 67.5473 62.2768 67.3047 62.208L41.7031 126.407C42.2629 126.748 42.6922 127.279 42.9023 127.912L105.866 121.218C105.936 120.364 106.388 119.619 107.054 119.155L69.2168 62.0664ZM70.7637 60.2441C70.6348 60.7262 70.384 61.1578 70.041 61.5L107.976 118.738C108.177 118.688 108.386 118.66 108.602 118.656L108.228 69.2061C106.884 69.0026 105.855 67.8471 105.854 66.4473C105.854 66.4167 105.857 66.3858 105.858 66.3555L70.7637 60.2441ZM221.884 5.32812C221.527 5.49335 221.131 5.58887 220.712 5.58887C220.52 5.58884 220.333 5.56902 220.152 5.53223L188.138 77.5762C188.719 78.0063 189.126 78.6544 189.238 79.4014H267.968C268.085 78.6215 268.522 77.9472 269.145 77.5186L221.884 5.32812ZM110.244 18.7549C109.843 19.0341 109.367 19.2093 108.851 19.2461L109.187 63.7051C110.43 63.9474 111.375 65.0127 111.437 66.3115L183.835 78.918C183.886 78.7694 183.946 78.6253 184.02 78.4893L110.244 18.7549ZM111.433 16.6875C111.393 17.1884 111.222 17.6514 110.952 18.043L184.648 77.7109C185.139 77.2854 185.778 77.0264 186.479 77.0264C186.743 77.0264 186.998 77.0652 187.24 77.1338L219.226 5.1582C218.672 4.80915 218.248 4.27329 218.047 3.63672L111.433 16.6875ZM70.1426 57.6543C70.5303 58.0849 70.7876 58.6348 70.8477 59.2441L106.067 65.377C106.431 64.5013 107.226 63.8523 108.188 63.6924L107.85 19.1387C107.536 19.0452 107.247 18.897 106.99 18.707L70.1426 57.6543Z" fill="#93FFFF" fill-opacity="0.75"/>
<path d="M335.146 389.599C333.592 463.769 303.315 611.819 194.808 612.975L193.527 612.981C83.9778 612.981 53.4688 464.059 51.9082 389.599H335.146Z" fill="url(#paint1_linear_181_171)"/>
<path d="M232.065 471.541C232.065 492.825 214.811 510.078 193.527 510.078C172.244 510.078 154.99 492.825 154.99 471.541C154.99 450.257 172.244 433.003 193.527 433.003C214.811 433.003 232.065 450.257 232.065 471.541Z" fill="#D9D9D9"/>
<path d="M228.565 471.541C228.565 452.19 212.878 436.503 193.528 436.503C174.177 436.503 158.49 452.19 158.49 471.541C158.49 490.892 174.177 506.578 193.528 506.578C212.878 506.578 228.565 490.892 228.565 471.541ZM235.565 471.541C235.565 494.758 216.744 513.578 193.528 513.578C170.311 513.578 151.49 494.758 151.49 471.541C151.49 448.324 170.311 429.503 193.528 429.503C216.744 429.503 235.565 448.324 235.565 471.541Z" fill="url(#paint2_linear_181_171)"/>
<path d="M335.146 389.599C335.085 394.007 334.562 403.711 334.143 407.262H52.9121C52.4931 403.711 51.9693 394.007 51.9082 389.599H335.146Z" fill="#D0D0D0"/>
<path d="M330.82 366.734C334.855 366.734 342.924 369.551 342.924 380.818C342.924 392.085 334.855 395.498 330.82 395.796H56.2344C52.1998 395.498 44.1309 392.085 44.1309 380.818C44.131 369.551 52.1999 366.734 56.2344 366.734H330.82Z" fill="url(#paint3_linear_181_171)"/>
<path d="M330.82 375.734C330.813 375.734 330.895 375.734 331.049 375.759C331.198 375.784 331.379 375.825 331.574 375.89C331.972 376.022 332.324 376.215 332.604 376.45C332.856 376.66 333.133 376.971 333.372 377.511C333.618 378.066 333.924 379.088 333.924 380.818C333.924 382.542 333.62 383.644 333.33 384.32C333.042 384.99 332.683 385.44 332.321 385.77C331.938 386.12 331.487 386.389 331.025 386.577C330.798 386.669 330.591 386.732 330.423 386.772C330.372 386.784 330.327 386.789 330.29 386.796H56.7646C56.728 386.789 56.6834 386.784 56.6328 386.772C56.4642 386.732 56.2566 386.669 56.0293 386.577C55.5679 386.389 55.1171 386.12 54.7334 385.77C54.3715 385.44 54.0123 384.99 53.7246 384.32C53.4347 383.644 53.1309 382.542 53.1309 380.818C53.1309 379.089 53.4367 378.067 53.6826 377.512C53.9221 376.972 54.1984 376.661 54.4502 376.45C54.7304 376.215 55.0831 376.022 55.4805 375.89C55.6753 375.825 55.8563 375.784 56.0059 375.759C56.1452 375.736 56.2259 375.734 56.2344 375.734H330.82Z" fill="url(#paint4_linear_181_171)"/>
<path d="M130.608 441.446C133.508 441.446 135.859 443.797 135.859 446.696C135.859 449.596 133.508 451.947 130.608 451.947C127.935 451.947 125.729 449.948 125.401 447.363H94.5039L99.9219 477.05C107.756 478.494 115.527 479.696 122.17 480.307L123.507 480.422L123.979 480.46L127.324 497.604C127.405 497.6 127.487 497.598 127.569 497.598C130.469 497.598 132.819 499.948 132.819 502.848C132.819 505.747 130.469 508.098 127.569 508.099C124.67 508.099 122.318 505.747 122.318 502.848C122.318 500.462 123.909 498.449 126.088 497.81L122.931 481.629C115.925 481.031 107.607 479.75 99.2695 478.204C84.5965 475.484 70.2915 472.031 62.416 469.959L62.1113 468.696C69.8031 470.72 84.2633 474.113 98.6035 476.803L93.001 446.11H125.392C125.683 443.487 127.907 441.446 130.608 441.446Z" fill="#FF76AD"/>
<path d="M80.2002 524.659C87.9594 529.63 114.161 538.475 154.25 534.565C154.228 534.368 154.216 534.168 154.216 533.965C154.216 531.027 156.598 528.646 159.535 528.646C162.473 528.646 164.854 531.027 164.854 533.965C164.854 536.903 162.473 539.284 159.535 539.284C157.332 539.284 155.441 537.945 154.634 536.036C114.23 540.033 88.9614 531.305 80.8271 526.094L80.2002 524.659Z" fill="#CAB366"/>
<path d="M144.815 556.285C147.5 556.285 149.719 558.273 150.083 560.856H182.234L182.225 561.616C182.151 567.342 182.262 576.732 182.831 586.273C183.401 595.833 184.504 606.458 186.248 612.734L185.516 612.679L184.862 612.64C183.072 606.196 181.905 595.928 181.334 586.363C180.787 577.191 180.664 568.162 180.719 562.356H150.083C149.718 564.94 147.499 566.927 144.815 566.927C141.877 566.927 139.494 564.545 139.494 561.606C139.494 558.668 141.877 556.285 144.815 556.285Z" fill="#6BC6FF"/>
<path d="M267.7 473.368C270.546 473.368 272.854 475.676 272.854 478.521C272.853 481.026 271.066 483.112 268.697 483.576C268.853 490.556 268.454 501.277 266.186 511.165C271.776 511.302 280.328 511.278 288.906 510.776C297.993 510.245 308.269 508.92 313.855 506.994L313.226 508.701C307.426 510.701 298.08 511.742 288.993 512.273C279.881 512.807 270.804 512.807 265.224 512.643L264.299 512.615L264.518 511.716C266.932 501.755 267.356 490.743 267.199 483.649C264.588 483.398 262.547 481.198 262.547 478.521C262.547 475.676 264.854 473.368 267.7 473.368Z" fill="#C392FF"/>
<path d="M297.174 544.251L296.822 544.914C287.84 546.607 271.151 549.27 251.383 551.064L252.443 563.948L251.774 564.07C248.864 564.599 242.12 565.609 235.677 565.977C235.678 566.018 235.681 566.06 235.681 566.103C235.681 569.19 233.177 571.693 230.09 571.693C227.003 571.693 224.5 569.19 224.5 566.103C224.5 563.015 227.003 560.513 230.09 560.513C232.615 560.513 234.748 562.188 235.441 564.487C241.391 564.156 247.653 563.257 250.836 562.709L249.889 551.199C239.716 552.093 229.065 552.72 218.857 552.804C218.49 555.535 216.152 557.64 213.32 557.641C210.233 557.641 207.73 555.138 207.729 552.051C207.729 548.963 210.233 546.461 213.32 546.461C216.154 546.461 218.493 548.57 218.858 551.304C229.262 551.218 240.14 550.566 250.508 549.64C270.521 547.852 288.635 545.062 297.684 543.356L297.174 544.251Z" fill="black"/>
<path fill-rule="evenodd" clip-rule="evenodd" d="M188.558 446.813C192.667 446.813 194.679 449.682 195.219 451.198C195.148 451.52 195.087 451.878 195.062 452.218C195.033 452.591 195.039 453.02 195.172 453.354C195.242 453.529 195.368 453.728 195.592 453.848C195.824 453.972 196.075 453.965 196.296 453.897C196.7 453.775 197.148 453.412 197.657 452.863C198.918 451.506 200.12 450.362 201.452 449.752C202.748 449.159 204.198 449.058 206.012 449.874C208.833 451.144 209.333 454.191 209.212 455.585L209.163 456.148L209.729 456.128C210.538 456.098 211.895 456.244 213.267 456.787C214.634 457.329 215.984 458.253 216.844 459.758C217.681 461.223 217.539 462.586 217.014 463.725C216.508 464.82 215.646 465.695 214.973 466.192C214.794 466.2 214.6 466.221 214.408 466.258C214.16 466.306 213.879 466.39 213.646 466.543C213.405 466.702 213.17 466.97 213.159 467.363C213.149 467.724 213.334 468.063 213.6 468.373C213.924 468.751 214.47 469.19 215.007 469.649C215.566 470.128 216.17 470.67 216.7 471.304C217.749 472.558 218.488 474.145 217.957 476.271C217.536 477.953 216.47 478.877 215.283 479.364C214.076 479.86 212.753 479.898 211.915 479.778L211.891 479.774L211.865 479.773C210.301 479.708 208.053 479.736 206.434 480.044C206.026 480.122 205.645 480.22 205.318 480.345C204.998 480.467 204.692 480.628 204.47 480.854C204.231 481.097 204.084 481.424 204.144 481.809C204.198 482.159 204.414 482.476 204.699 482.762C205.14 483.203 205.61 483.969 206.079 484.97C206.543 485.96 206.988 487.138 207.396 488.367C208.147 490.629 208.76 493.036 209.128 494.705L205.466 496.078C204.659 491.186 199.215 482.878 183.124 482.878C179.586 482.878 177.704 481.755 176.738 480.46C175.757 479.144 175.646 477.549 175.853 476.487L175.862 476.44V476.393C175.862 475.538 176.21 474.21 177.275 473.1C178.329 472.002 180.13 471.07 183.124 471.07H200.032L200.181 470.909C200.39 470.683 200.621 470.399 200.82 470.097C201.016 469.8 201.199 469.458 201.287 469.119C201.373 468.786 201.39 468.347 201.086 467.996C200.795 467.66 200.329 467.548 199.813 467.548H183.143C181.269 467.417 178.461 467.686 176.098 468.945C173.823 470.157 171.97 472.287 171.774 475.775C170.917 475.555 169.841 475.123 168.923 474.419C167.801 473.558 166.936 472.318 166.936 470.57C166.936 468.237 167.587 466.625 168.547 465.6C169.505 464.576 170.821 464.084 172.257 464.084C172.887 464.084 173.396 464.008 173.728 463.788C173.914 463.664 174.061 463.482 174.111 463.243C174.158 463.018 174.104 462.811 174.033 462.652C173.897 462.348 173.627 462.067 173.372 461.844C173.105 461.61 172.798 461.392 172.522 461.22L172.4 461.144H171.621C171.706 460.261 172.013 459.133 172.702 458.176C173.512 457.051 174.866 456.128 177.108 456.128H181.097L181.195 456.084C181.533 455.932 181.91 455.739 182.238 455.532C182.545 455.339 182.885 455.088 183.063 454.801C183.158 454.649 183.254 454.412 183.176 454.142C183.097 453.871 182.886 453.712 182.698 453.622C182.451 453.503 182.1 453.434 181.651 453.402C182.026 452.239 182.709 450.738 183.72 449.462C184.914 447.954 186.515 446.814 188.558 446.813ZM203.5 461.644L203.352 462.121C205.292 462.728 209.21 465.273 209.21 470.57C209.21 473.225 208.235 474.805 207.07 475.729C205.884 476.671 204.451 476.971 203.509 476.956H183.124V477.956L203.5 477.955C204.627 477.972 206.295 477.622 207.692 476.513C209.115 475.383 210.21 473.504 210.21 470.57C210.21 464.69 205.849 461.855 203.649 461.167L203.5 461.644ZM191.56 453.393C190.416 453.635 188.729 454.332 187.319 455.646C185.898 456.971 184.759 458.926 184.759 461.644H185.759C185.759 459.239 186.755 457.539 188.001 456.377C189.26 455.203 190.776 454.581 191.767 454.371L191.56 453.393Z" fill="#283560"/>
<defs>
<linearGradient id="paint0_linear_181_171" x1="63.0491" y1="337.431" x2="324.005" y2="337.431" gradientUnits="userSpaceOnUse">
<stop stop-color="#713C4D"/>
<stop offset="1" stop-color="#B17A3B"/>
</linearGradient>
<linearGradient id="paint1_linear_181_171" x1="193.527" y1="389.599" x2="193.527" y2="612.981" gradientUnits="userSpaceOnUse">
<stop offset="0.134615" stop-color="#E6E6E6"/>
<stop offset="1" stop-color="#B9C4CF"/>
</linearGradient>
<linearGradient id="paint2_linear_181_171" x1="193.527" y1="433.003" x2="193.527" y2="510.078" gradientUnits="userSpaceOnUse">
<stop stop-color="#CFCFCF"/>
<stop offset="1" stop-color="#E8E8E8"/>
</linearGradient>
<linearGradient id="paint3_linear_181_171" x1="44.1309" y1="381.265" x2="342.924" y2="381.265" gradientUnits="userSpaceOnUse">
<stop stop-color="#B9C5CF"/>
<stop offset="1" stop-color="#E6E6E6"/>
</linearGradient>
<linearGradient id="paint4_linear_181_171" x1="44.1309" y1="381.265" x2="342.924" y2="381.265" gradientUnits="userSpaceOnUse">
<stop stop-color="#95A7B8"/>
<stop offset="1" stop-color="#A7A4B5"/>
</linearGradient>
</defs>
</svg>
