<svg width="462" height="1162" viewBox="0 0 462 1162" fill="none" xmlns="http://www.w3.org/2000/svg">
<path d="M461.989 775.228L441.551 795.665V1090.82L461.989 1111.26V1123.62L423.014 1161.64H0L13.3086 1153.09H111.22L123.578 1141.29H161.29L167.161 1155.51L164.071 1141.29H226.964L244.303 1111.26H364.078L354.572 1123.62H248.959L231.945 1153.09H423.014L452.483 1123.62V1111.26H423.014L414.459 1123.62H411.882L425.165 1091.74L405.849 1083.75L431.57 1058.03V795.665L461.989 765.246V775.228Z" fill="#484848"/>
<path d="M274.161 1146.43H261.748L270.972 1130.45H283.385L274.161 1146.43Z" fill="#484848"/>
<path d="M299.671 1146.43H287.258L296.482 1130.45H308.895L299.671 1146.43Z" fill="#484848"/>
<path d="M326.244 1146.43H313.299L322.524 1130.45H335.468L326.244 1146.43Z" fill="#484848"/>
<path d="M415.846 1095.67L409.96 1123.62H378.337V1111.26L403.809 1085.79L415.846 1095.67Z" fill="#484848"/>
<path d="M461.989 1094.04L452.483 1084.54L451.913 798.619L461.989 788.543V1094.04Z" fill="#484848"/>
<path d="M407.997 899.465L423.014 904.184V1010.84L414.459 1019.4V943.236H411.132V1058.03L378.337 1090.82V1054.47L400.554 1032.26L400.553 890.367L407.997 899.465Z" fill="#484848"/>
<path d="M451.927 382.399L461.989 392.882V745.738L423.014 784.713V903.532L410.873 896.032L400.554 885.86V788.543L451.913 737.183V398.667L441.551 388.015V245.362L451.927 231.75V382.399Z" fill="#484848"/>
<path d="M410.873 458.589L422.222 455.155L430.07 467.418L445.97 474.348V733.736L414.459 765.246V709.43L400.554 695.524V445.376L410.873 458.589Z" fill="#484848"/>
<path d="M370.295 310.739V341.282L362.381 342.83H370.295V392.882L414.459 407.801V313.363L431.57 331.416V393.401L445.97 407.801V473.28L434.485 464.475L425.165 447.308L410.873 452.703L400.554 437.157V422.008L323.241 396.03L325.595 377.782L353.829 387.32V310.739L312.528 278.802L313.815 274.003L360.129 296.801L375.968 227.743L370.295 310.739Z" fill="#484848"/>
<path d="M252.126 228.291L249.333 232.445L253.711 249.594L242.275 287.622L293.2 366.839L322.156 376.62L316.865 393.887L293.2 385.936L209.032 418.471L155.278 389.472L152.704 389.763L145.579 380.108L150.305 390.034L73.9393 398.667L141.132 382.399L117.084 359.766L209.032 407.801L282.59 376.741L242.828 312.608L249.333 308.986L241.515 310.491L216.812 270.647H177.953L179.023 259.331H225.3L232.712 274.866L249.498 215.525L252.126 228.291Z" fill="#484848"/>
<path d="M431.57 203.245V330.071L414.459 304.123V203.245L401.587 193.352L407.327 179.002L431.57 203.245Z" fill="#484848"/>
<path d="M310.878 272.557V277.526L293.2 263.856L310.878 272.557Z" fill="#484848"/>
<path d="M155.278 259.331H174.039L175.568 270.647H149.619L105.06 209.82L155.278 259.331Z" fill="#484848"/>
<path d="M225.04 123.949V138.781L228.535 129.293L270.566 193.552L254.672 246.401L253.484 232.445L255.56 228.291L250.319 212.62L255.713 193.552L229.543 151.115L163.058 129.189L220.348 141.213L197.008 81.093L225.04 123.949Z" fill="#484848"/>
<path d="M350.35 50.925V122.025L402.344 174.019L396.547 189.478L390.806 185.065L300.98 158.895L258.542 69.7762L308.76 151.115L370.295 165.968L337.759 129.189V101.895L345.213 100.032L337.759 97.9018V50.925L321.491 0L350.35 50.925Z" fill="#484848"/>
</svg>
