<svg width="276" height="391" viewBox="0 0 276 391" fill="none" xmlns="http://www.w3.org/2000/svg">
<path d="M137.902 0C145.606 10.8425 156.348 23.6314 189.262 43.655C236.807 72.5798 333.922 211.095 228.637 309.534C191.658 341.034 152.739 344.915 137.902 342.918C123.064 344.915 84.1463 341.033 47.1683 309.534C-58.1176 211.095 38.9975 72.5798 86.543 43.655C119.457 23.6316 130.198 10.8424 137.902 0Z" fill="#46D83E"/>
<path d="M141.745 168.507L185.689 111.381L141.745 175.83V248.582L218.402 187.549L141.745 261.276L145.526 390.864H130.279L134.06 261.276L57.4031 187.549L134.06 248.582V175.83L90.1161 111.381L134.06 168.507L137.902 55.5872L141.745 168.507Z" fill="#38AF32"/>
</svg>
