<svg width="547" height="1118" viewBox="0 0 547 1118" fill="none" xmlns="http://www.w3.org/2000/svg">
<path d="M546.118 660.797L521.959 684.957V1033.87L546.118 1058.03V1072.63L500.046 1117.58H0L15.7321 1107.47H131.473L146.081 1093.53H190.662L197.601 1110.33L193.949 1093.53H268.294L288.791 1058.03H430.377L419.14 1072.63H294.295L274.183 1107.47H500.046L534.881 1072.63V1058.03H500.046L489.933 1072.63H486.887L502.588 1034.95L479.755 1025.5L510.16 995.098V684.957L546.118 648.998V660.797Z" fill="#484848"/>
<path d="M324.086 1099.6H309.412L320.316 1080.71H334.99L324.086 1099.6Z" fill="#484848"/>
<path d="M354.242 1099.6H339.568L350.472 1080.71H365.145L354.242 1099.6Z" fill="#484848"/>
<path d="M385.654 1099.6H370.352L381.256 1080.71H396.557L385.654 1099.6Z" fill="#484848"/>
<path d="M491.572 1039.59L484.615 1072.63H447.232V1058.03L477.343 1027.91L491.572 1039.59Z" fill="#484848"/>
<path d="M546.118 1037.67L534.881 1026.43L534.207 688.448L546.118 676.537V1037.67Z" fill="#484848"/>
<path d="M482.295 807.658L500.046 813.237V939.32L489.933 949.433V859.4H486V995.098L447.232 1033.87V990.894L473.495 964.631L473.495 796.903L482.295 807.658Z" fill="#484848"/>
<path d="M534.224 452.035L546.118 464.427V625.938L500.046 672.01V812.466L485.694 803.6L473.495 791.576V676.537L534.207 615.825V471.265L521.959 458.673V290.043L534.224 273.952V452.035Z" fill="#484848"/>
<path d="M485.694 542.099L499.11 538.04L508.387 552.536L527.182 560.728V611.75L489.933 648.998V583.018L473.495 566.579V526.48L485.694 542.099Z" fill="#484848"/>
<path d="M437.726 367.326V403.43L428.371 405.261H437.726V464.427L489.933 482.062V370.428L510.16 391.768V465.04L527.182 482.062V559.465L513.605 549.057L502.588 528.763L485.694 535.141L473.495 516.764V498.856L382.104 468.148L384.887 446.577L418.262 457.852V367.326L369.44 329.572L370.962 323.9L425.709 350.849L444.432 269.215L437.726 367.326Z" fill="#484848"/>
<path d="M298.038 269.864L294.737 274.773L299.913 295.046L286.393 339.999L346.592 433.641L380.821 445.204L374.566 465.615L346.592 456.215L247.097 494.676L183.554 460.396L180.512 460.739L172.089 449.327L177.676 461.06L87.4037 471.265L166.832 452.035L138.405 425.28L247.097 482.062L334.05 445.346L287.047 369.535L294.737 365.253L285.496 367.032L256.294 319.933H210.358L211.624 306.555H266.327L275.089 324.92L294.932 254.773L298.038 269.864Z" fill="#484848"/>
<path d="M510.16 240.256V390.178L489.933 359.504V240.256L474.717 228.561L481.502 211.599L510.16 240.256Z" fill="#484848"/>
<path d="M367.489 322.191V328.064L346.592 311.904L367.489 322.191Z" fill="#484848"/>
<path d="M183.554 306.555H205.732L207.539 319.933H176.865L124.192 248.029L183.554 306.555Z" fill="#484848"/>
<path d="M266.02 146.521V164.054L270.152 152.838L319.837 228.799L301.048 291.271L299.644 274.773L302.098 269.864L295.903 251.339L302.279 228.799L271.344 178.633L192.751 152.715L260.474 166.928L232.883 95.8602L266.02 146.521Z" fill="#484848"/>
<path d="M414.149 60.1986V144.246L475.612 205.708L468.759 223.982L461.973 218.766L355.789 187.83L305.623 82.4826L364.986 178.633L437.726 196.191L399.266 152.715V120.45L408.077 118.248L399.266 115.73V60.1986L380.036 0L414.149 60.1986Z" fill="#484848"/>
</svg>
