<svg width="472" height="589" viewBox="0 0 472 589" fill="none" xmlns="http://www.w3.org/2000/svg">
<path d="M293.432 22.9622C301.846 3.62363 324.345 -5.23359 343.683 3.17995C363.022 11.5937 371.878 34.0923 363.465 53.4309C359.674 62.1425 353.025 68.7259 345.095 72.5628C349.3 81.8201 351.538 91.7635 351.43 102.099C350.924 150.697 298.758 189.555 234.913 188.891C171.067 188.226 119.72 148.291 120.226 99.6926C120.301 92.5377 121.497 85.5939 123.683 78.9563C122.257 78.5257 120.839 78.0106 119.439 77.4016C100.1 68.9879 91.2442 46.4895 99.6578 27.1507C108.072 7.81219 130.569 -1.04418 149.908 7.3694C159.505 11.5449 166.519 19.1893 170.124 28.1946C189.028 18.3198 212.009 12.6433 236.744 12.9007C257.125 13.1128 276.233 17.3276 292.787 24.5481C292.99 24.0177 293.203 23.4882 293.432 22.9622Z" fill="white"/>
<path d="M397.95 174.282C397.255 192.843 399.93 214.391 410.087 233.174C375.247 240.398 350.475 244.25 311.943 244.25C322.429 279.703 322.396 324.033 322.401 324.207C311.085 332.944 259.968 342.707 233.901 342.707C207.835 342.707 161.681 332.944 150.365 324.207C150.37 324.033 149.578 279.703 160.064 244.25C121.532 244.25 96.7606 240.398 61.9207 233.174C72.0774 214.391 74.7526 192.843 74.0574 174.282C129.288 184.199 181.8 200.589 236.004 200.589C289.31 200.292 343.583 184.044 397.95 174.282Z" fill="white"/>
<path d="M322.994 332.702C344.692 417.578 393.2 534.721 369.837 572.897C359.157 590.346 325.486 596.039 312.957 572.897C291.022 532.378 273.753 483.304 261.29 416.415C252.273 420.247 243.031 421.459 236.004 421.459C228.977 421.459 219.734 420.247 210.718 416.415C198.255 483.304 180.986 532.378 159.051 572.897C146.522 596.039 112.85 590.345 102.171 572.897C78.8073 534.721 127.475 417.578 149.172 332.702C164.796 337.905 201.916 350.803 236.004 350.803C270.092 350.803 307.371 337.905 322.994 332.702Z" fill="white"/>
<path d="M1.36026 180.474C3.46 171.14 15.3082 155.274 45.9042 166.474C51.7264 168.605 59.2178 170.652 67.9482 172.597C67.852 191.441 64.4204 212.555 54.1327 230.463C32.2207 224.752 15.2826 218.587 9.90909 212.474C-1.96917 201.274 -0.739403 186.474 1.36026 180.474Z" fill="white"/>
<path d="M426.103 166.474C456.699 155.274 468.548 171.14 470.647 180.474C472.747 186.474 473.977 201.274 462.099 212.474C456.725 218.587 439.787 224.752 417.875 230.463C407.587 212.555 404.156 191.441 404.059 172.597C412.79 170.652 420.281 168.605 426.103 166.474Z" fill="white"/>
</svg>
