<svg width="276" height="391" viewBox="0 0 276 391" fill="none" xmlns="http://www.w3.org/2000/svg">
<path d="M137.901 0C144.263 8.95354 152.698 19.2333 173.977 33.8193C172.316 41.1215 170.042 50.6783 168.601 56.6426L176.857 35.7686C180.604 38.2689 184.722 40.8925 189.262 43.6543C211.086 56.9315 243.352 93.3014 261.695 138.285L232.759 157.801L262.97 141.482C283.381 193.897 284.453 257.346 228.636 309.533C220.623 316.359 212.517 321.886 204.587 326.34L195.288 306.743L204.503 293.378L195.288 275.886L198.962 291.314L189.411 306.743L196.897 330.357C171.28 342.775 148.476 344.341 137.901 342.918C123.064 344.915 84.1459 341.033 47.1679 309.533C23.5308 287.433 10.0961 263.313 4.01069 238.867L19.2392 236.896H3.5351C-6.97466 191.73 7.31139 145.609 28.4462 109.188L40.2636 138.494L76.2646 154.658L47.6113 138.494L36.581 96.1172C53.1029 71.3204 72.1068 52.4361 86.5419 43.6543C119.456 23.631 130.197 10.8424 137.901 0Z" fill="#5E5E5E"/>
<path d="M141.744 168.506L185.688 111.381L141.744 175.83V248.581L218.401 187.548L141.744 261.276L145.525 390.864H130.279L134.059 261.276L57.4025 187.548L134.059 248.581V175.83L90.1156 111.381L134.059 168.506L137.902 55.5869L141.744 168.506Z" fill="#3F3F3F"/>
</svg>
