<svg width="462" height="1166" viewBox="0 0 462 1166" fill="none" xmlns="http://www.w3.org/2000/svg">
<path d="M30.419 799.515V1061.88L83.6524 1115.11V1127.47H47.5294L38.9747 1115.11H9.50579V1127.47L38.9747 1156.94H230.043L213.03 1127.47H107.417L97.9111 1115.11H217.686L235.025 1145.14H338.411L350.769 1156.94H448.68L461.989 1165.49H38.9747L0 1127.47V1115.11L20.4377 1094.67V799.515L0 779.077V769.096L30.419 799.515Z" fill="url(#paint0_linear_269_510)"/>
<path d="M148.689 1150.28H135.745L126.52 1134.3H139.465L148.689 1150.28Z" fill="url(#paint1_linear_269_510)"/>
<path d="M174.731 1150.28H162.318L153.093 1134.3H165.507L174.731 1150.28Z" fill="url(#paint2_linear_269_510)"/>
<path d="M200.241 1150.28H187.828L178.604 1134.3H191.017L200.241 1150.28Z" fill="url(#paint3_linear_269_510)"/>
<path d="M10.0757 802.468L9.50579 1088.39L0 1097.89V792.392L10.0757 802.468Z" fill="url(#paint4_linear_269_510)"/>
<path d="M20.4377 289.613V432.266L10.0757 442.918L10.0757 741.032L61.4353 792.392V1036.1L83.6524 1058.32V1094.67L50.8567 1061.88V947.085H47.5294V1023.25L38.9747 1014.69V788.562L0 749.588L3.05176e-05 437.133L10.0618 426.65V276.001L20.4377 289.613Z" fill="url(#paint5_linear_269_510)"/>
<path fill-rule="evenodd" clip-rule="evenodd" d="M87.2265 0C89.9221 4.82028 95.9683 6.86829 101.623 7.3011C107.279 7.7334 113.051 6.96301 118.617 7.97324C127.94 9.6659 135.821 16.5182 139.295 25.0818C141.839 31.352 142.008 38.4711 140.064 45.0156L140.497 44.251L124.23 95.176V173.44L91.6944 210.219L153.229 195.366L196.095 125.932C192.365 118.222 191.834 109.056 195.014 101.217C198.488 92.6539 206.368 85.802 215.692 84.1093C221.258 83.099 227.031 83.8695 232.686 83.4371C238.341 83.0043 244.387 80.9563 247.082 76.136C254.357 108.162 242.043 132.364 213.954 131.896C210.193 131.833 205.621 130.856 201.494 129.293C206.873 116.604 215.458 109.362 225.373 105.206C236.586 100.505 239.549 93.3357 239.569 93.2869C236.639 96.9243 232.427 99.2951 228.142 101.154C223.856 103.012 219.379 104.455 215.279 106.694C208.222 110.547 203.095 116.728 199.527 122.257L161.009 203.146L71.1828 229.316L47.5295 247.496V452.052L91.6944 437.133V354.99L86.0212 271.993L101.86 341.052L134.683 324.894C127.302 322.192 120.987 316.764 117.607 309.763C113.589 301.441 113.796 291 118.798 282.951C121.783 278.147 126.228 274.384 129.703 269.9C133.176 265.417 135.714 259.56 133.949 254.327C162.191 270.206 171.993 295.111 153.821 315.474L168.789 308.107L108.159 354.99V431.571L154.055 416.067C151.245 415.285 148.582 414.239 146.421 413.026C121.922 399.28 123.478 372.169 145.897 348.17C145.797 353.692 149.988 358.507 154.654 361.73C159.322 364.953 164.696 367.196 168.995 370.872C176.196 377.032 179.551 386.921 178.238 396.068C178.218 396.21 178.196 396.35 178.173 396.491L219.714 331.873L191.423 237.803L264.981 125.344L241.64 185.464L287.866 175.762C297.8 168.421 307.979 166.36 317.943 167.199C330.062 168.219 336.005 163.231 336.042 163.2C331.762 165.069 326.931 165.223 322.271 164.888C317.612 164.553 312.976 163.76 308.305 163.848C297.803 164.047 288.384 169.289 282.385 173.307C282.289 164.307 286.107 155.369 292.872 149.619C299.914 143.634 310.07 141.205 319.119 144.018C324.521 145.697 329.282 149.05 334.497 151.283C339.71 153.516 346.018 154.497 350.637 151.47C342.271 183.228 320.157 198.988 295.472 185.579C292.248 183.828 288.745 180.95 285.851 177.753L232.445 195.366L206.276 237.803L229.277 319.117L236.689 303.582H288.971C264.095 294.632 260.497 268.541 276.767 241.089C277.855 246.503 282.981 250.307 288.23 252.453C293.481 254.599 299.212 255.636 304.2 258.304C312.555 262.775 317.955 271.713 318.636 280.929C318.959 285.311 318.22 289.726 316.606 293.826L348.251 262.626C348.579 254.156 352.336 245.899 358.716 240.477C365.758 234.492 375.914 232.063 384.963 234.876C390.365 236.555 395.126 239.908 400.34 242.142C405.554 244.374 411.861 245.355 416.481 242.329C408.115 274.087 386.001 289.847 361.315 276.437C358.01 274.641 354.409 271.66 351.474 268.366C362.112 259.605 373.074 257.155 383.786 258.057C395.913 259.078 401.856 254.083 401.886 254.058C397.605 255.927 392.775 256.081 388.115 255.746C383.456 255.411 378.819 254.619 374.149 254.707C364.994 254.88 356.662 258.886 350.701 262.572L312.369 314.898H245.176L179.398 420.992L252.957 452.052L344.905 404.017L320.857 426.65L388.05 442.918L333.824 436.788C349.742 447.128 352.133 468.915 340.906 493C339.289 487.719 333.812 484.44 328.377 482.823C322.94 481.205 317.134 480.739 311.908 478.576C303.152 474.952 296.897 466.59 295.31 457.486C294.163 450.908 295.452 444.01 298.64 438.077L252.957 462.722L168.789 430.187L61.4353 466.259L61.4353 699.373L47.5294 713.279V769.096L16.019 737.585L16.019 452.052L30.419 437.652V247.496L111.638 166.276V95.176L137.177 50.1092C133.662 43.8355 127.856 35.3772 119.03 30.5575C114.93 28.3188 110.453 26.8768 106.167 25.0181C101.881 23.1595 97.6696 20.7884 94.7395 17.1509C94.7501 17.1765 97.7044 24.3615 108.936 29.0696C118.851 33.2256 127.436 40.4686 132.814 53.1571C128.688 54.7199 124.116 55.6968 120.355 55.7597C92.2663 56.228 79.9522 32.0259 87.2265 0ZM303.335 435.544C305.569 442.163 309.406 450.478 316.274 456.414C319.809 459.468 323.881 461.824 327.677 464.546C331.473 467.268 335.089 470.475 337.185 474.65C337.185 474.65 335.828 466.988 325.827 460.001C317.56 454.226 311.011 446.044 308.104 433.88L306.711 433.723L303.335 435.544ZM143.746 366.77C143.744 366.789 142.671 374.487 150.005 384.218C156.063 392.256 159.75 402.043 158.763 414.477L163.771 412.785C163.547 406.058 162.302 397.761 157.974 390.589C155.561 386.59 152.419 383.088 149.654 379.323C146.888 375.559 144.445 371.389 143.746 366.77ZM141.624 271.406C142.355 276.019 141.287 280.733 139.79 285.158C138.292 289.583 136.357 293.87 135.265 298.412C133.063 307.581 135.015 316.928 137.157 323.677L141.739 321.422C137.037 309.868 137.592 299.423 140.935 289.929C144.98 278.446 141.638 271.435 141.624 271.406ZM278.659 259.717C278.659 259.717 279.253 267.475 288.516 275.415C296.26 282.052 302.011 290.966 303.63 303.582H306.711L308.458 301.858C306.881 295.069 303.882 286.475 297.668 279.927C294.452 276.539 290.632 273.793 287.123 270.71C283.614 267.626 280.332 264.078 278.659 259.717Z" fill="url(#paint6_linear_269_510)"/>
<defs>
<linearGradient id="paint0_linear_269_510" x1="230.995" y1="175.824" x2="230.995" y2="1165.49" gradientUnits="userSpaceOnUse">
<stop stop-color="#D4FFC4"/>
<stop offset="1" stop-color="#63FF55"/>
</linearGradient>
<linearGradient id="paint1_linear_269_510" x1="230.995" y1="175.824" x2="230.995" y2="1165.49" gradientUnits="userSpaceOnUse">
<stop stop-color="#D4FFC4"/>
<stop offset="1" stop-color="#63FF55"/>
</linearGradient>
<linearGradient id="paint2_linear_269_510" x1="230.995" y1="175.824" x2="230.995" y2="1165.49" gradientUnits="userSpaceOnUse">
<stop stop-color="#D4FFC4"/>
<stop offset="1" stop-color="#63FF55"/>
</linearGradient>
<linearGradient id="paint3_linear_269_510" x1="230.995" y1="175.824" x2="230.995" y2="1165.49" gradientUnits="userSpaceOnUse">
<stop stop-color="#D4FFC4"/>
<stop offset="1" stop-color="#63FF55"/>
</linearGradient>
<linearGradient id="paint4_linear_269_510" x1="230.995" y1="175.824" x2="230.995" y2="1165.49" gradientUnits="userSpaceOnUse">
<stop stop-color="#D4FFC4"/>
<stop offset="1" stop-color="#63FF55"/>
</linearGradient>
<linearGradient id="paint5_linear_269_510" x1="230.995" y1="175.824" x2="230.995" y2="1165.49" gradientUnits="userSpaceOnUse">
<stop stop-color="#D4FFC4"/>
<stop offset="1" stop-color="#63FF55"/>
</linearGradient>
<linearGradient id="paint6_linear_269_510" x1="230.995" y1="175.824" x2="230.995" y2="1165.49" gradientUnits="userSpaceOnUse">
<stop stop-color="#D4FFC4"/>
<stop offset="1" stop-color="#63FF55"/>
</linearGradient>
</defs>
</svg>
