<svg width="547" height="1170" viewBox="0 0 547 1170" fill="none" xmlns="http://www.w3.org/2000/svg">
<path d="M35.9584 737.266V1047.41L98.8856 1110.33V1124.94H56.1846L46.072 1110.33H11.2368V1124.94L46.072 1159.78H271.935L251.823 1124.94H126.978L115.741 1110.33H257.327L277.824 1145.84H400.037L414.645 1159.78H530.386L546.118 1169.89H46.072L0 1124.94V1110.33L24.1594 1086.17V737.266L0 713.106V701.308L35.9584 737.266Z" fill="url(#paint0_linear_269_510)"/>
<path d="M175.766 1151.91H160.464L149.56 1133.02H164.862L175.766 1151.91Z" fill="url(#paint1_linear_269_510)"/>
<path d="M206.55 1151.91H191.876L180.972 1133.02H195.646L206.55 1151.91Z" fill="url(#paint2_linear_269_510)"/>
<path d="M236.706 1151.91H222.032L211.128 1133.02H225.801L236.706 1151.91Z" fill="url(#paint3_linear_269_510)"/>
<path d="M11.9105 740.757L11.2368 1078.74L0 1089.98V728.846L11.9105 740.757Z" fill="url(#paint4_linear_269_510)"/>
<path d="M24.1594 342.353V510.982L11.9105 523.574V668.134L72.6228 728.846V1016.94L98.8856 1043.2V1086.17L60.1178 1047.41V911.71H56.1846V1001.74L46.072 991.629V724.319L0 678.247V516.736L11.894 504.344V326.262L24.1594 342.353Z" fill="url(#paint5_linear_269_510)"/>
<path fill-rule="evenodd" clip-rule="evenodd" d="M103.111 0C106.297 5.69806 113.444 8.11902 120.128 8.63064C126.814 9.14167 133.638 8.23099 140.217 9.42519C151.239 11.4261 160.554 19.5262 164.661 29.6493C167.668 37.0612 167.867 45.4768 165.57 53.2131L166.082 52.3092L146.852 112.508V205.024L108.392 248.5L181.132 230.943L231.805 148.865C227.394 139.75 226.767 128.915 230.526 119.649C234.633 109.526 243.949 101.427 254.97 99.4258C261.549 98.2315 268.373 99.1423 275.059 98.6312C281.743 98.1196 288.89 95.6986 292.076 90.0006C300.675 127.858 286.119 156.468 252.916 155.914C248.469 155.84 243.065 154.685 238.187 152.837C244.545 137.838 254.693 129.277 266.414 124.364C279.669 118.807 283.172 110.332 283.195 110.275C279.732 114.574 274.753 117.377 269.687 119.574C264.621 121.771 259.328 123.476 254.482 126.123C246.14 130.678 240.079 137.984 235.861 144.52L190.329 240.139L84.1453 271.075L56.1846 292.565V534.371L108.392 516.736V419.635L101.686 321.524L120.409 403.158L159.209 384.058C150.484 380.864 143.02 374.447 139.024 366.172C134.274 356.334 134.519 343.992 140.431 334.477C143.96 328.798 149.215 324.35 153.322 319.05C157.428 313.75 160.428 306.827 158.341 300.641C191.726 319.412 203.314 348.852 181.833 372.923L199.526 364.213L127.855 419.635V510.161L182.109 491.833C178.787 490.91 175.639 489.672 173.085 488.239C144.124 471.989 145.964 439.942 172.465 411.572C172.347 418.1 177.301 423.792 182.817 427.601C188.334 431.411 194.688 434.063 199.769 438.409C208.282 445.69 212.248 457.38 210.696 468.193C210.672 468.36 210.646 468.527 210.619 468.693L259.724 392.308L226.281 281.108L313.234 148.169L285.643 219.237L340.287 207.768C352.03 199.091 364.062 196.654 375.84 197.646C390.167 198.852 397.193 192.955 397.236 192.919C392.176 195.129 386.465 195.31 380.958 194.915C375.45 194.519 369.969 193.581 364.448 193.685C352.034 193.92 340.9 200.117 333.808 204.867C333.695 194.228 338.207 183.662 346.205 176.865C354.529 169.79 366.535 166.919 377.232 170.244C383.617 172.228 389.245 176.193 395.409 178.832C401.572 181.471 409.028 182.631 414.489 179.053C404.599 216.595 378.459 235.225 349.278 219.373C345.467 217.303 341.326 213.901 337.905 210.122L274.774 230.943L243.839 281.108L271.029 377.229L279.791 358.864H341.593C312.187 348.285 307.934 317.442 327.167 284.991C328.453 291.392 334.513 295.888 340.718 298.425C346.925 300.962 353.7 302.188 359.595 305.342C369.472 310.626 375.855 321.192 376.66 332.087C377.042 337.266 376.168 342.485 374.26 347.332L411.668 310.451C412.055 300.438 416.498 290.678 424.039 284.268C432.363 277.194 444.369 274.322 455.066 277.647C461.451 279.632 467.079 283.596 473.243 286.236C479.406 288.875 486.862 290.035 492.323 286.457C482.433 323.999 456.293 342.628 427.112 326.777C423.204 324.654 418.947 321.13 415.478 317.236C428.053 306.88 441.011 303.984 453.674 305.05C468.009 306.257 475.035 300.352 475.07 300.322C470.01 302.532 464.299 302.714 458.792 302.318C453.284 301.922 447.803 300.985 442.282 301.09C431.46 301.294 421.611 306.029 414.564 310.387L369.252 372.242H289.824L212.067 497.655L299.021 534.371L407.712 477.589L379.286 504.344L458.714 523.574L394.614 516.328C413.43 528.551 416.257 554.305 402.985 582.776C401.074 576.534 394.6 572.658 388.175 570.746C381.748 568.834 374.885 568.283 368.707 565.726C358.357 561.442 350.962 551.557 349.086 540.795C347.731 533.019 349.254 524.865 353.023 517.851L299.021 546.985L199.526 508.524L72.6228 551.166V618.889L56.1846 635.327V701.308L18.9361 664.059V534.371L35.9584 517.349V292.565L131.968 196.555V112.508L162.157 59.2342C158.002 51.8181 151.138 41.8195 140.706 36.1221C135.859 33.4757 130.566 31.7711 125.5 29.574C120.434 27.3769 115.455 24.574 111.992 20.2741C112.004 20.3044 115.497 28.7978 128.773 34.3632C140.494 39.276 150.642 47.838 157 62.8372C152.122 64.6845 146.718 65.8393 142.272 65.9137C109.068 66.4672 94.5116 37.8578 103.111 0ZM358.573 514.858C361.213 522.682 365.749 532.511 373.868 539.528C378.047 543.139 382.86 545.923 387.348 549.141C391.835 552.358 396.109 556.15 398.587 561.084C398.587 561.084 396.983 552.027 385.16 543.768C375.389 536.942 367.647 527.27 364.21 512.891L362.563 512.705L358.573 514.858ZM169.923 433.56C169.919 433.582 168.651 442.682 177.321 454.185C184.482 463.686 188.841 475.256 187.673 489.954L193.594 487.954C193.329 480.001 191.857 470.193 186.742 461.716C183.888 456.988 180.175 452.849 176.906 448.399C173.637 443.949 170.748 439.019 169.923 433.56ZM167.414 320.829C168.278 326.283 167.016 331.855 165.245 337.086C163.475 342.316 161.187 347.384 159.897 352.754C157.294 363.592 159.601 374.642 162.134 382.619L167.549 379.953C161.991 366.296 162.647 353.949 166.6 342.726C171.381 329.152 167.431 320.864 167.414 320.829ZM329.403 307.012C329.403 307.012 330.106 316.183 341.056 325.569C350.209 333.414 357.008 343.951 358.922 358.864H362.563L364.629 356.827C362.765 348.802 359.22 338.643 351.874 330.902C348.072 326.897 343.557 323.651 339.409 320.006C335.261 316.362 331.381 312.167 329.403 307.012Z" fill="url(#paint6_linear_269_510)"/>
<defs>
<linearGradient id="paint0_linear_269_510" x1="273.059" y1="0" x2="273.059" y2="1169.89" gradientUnits="userSpaceOnUse">
<stop stop-color="#D4FFC4"/>
<stop offset="1" stop-color="#63FF55"/>
</linearGradient>
<linearGradient id="paint1_linear_269_510" x1="273.059" y1="0" x2="273.059" y2="1169.89" gradientUnits="userSpaceOnUse">
<stop stop-color="#D4FFC4"/>
<stop offset="1" stop-color="#63FF55"/>
</linearGradient>
<linearGradient id="paint2_linear_269_510" x1="273.059" y1="0" x2="273.059" y2="1169.89" gradientUnits="userSpaceOnUse">
<stop stop-color="#D4FFC4"/>
<stop offset="1" stop-color="#63FF55"/>
</linearGradient>
<linearGradient id="paint3_linear_269_510" x1="273.059" y1="0" x2="273.059" y2="1169.89" gradientUnits="userSpaceOnUse">
<stop stop-color="#D4FFC4"/>
<stop offset="1" stop-color="#63FF55"/>
</linearGradient>
<linearGradient id="paint4_linear_269_510" x1="273.059" y1="0" x2="273.059" y2="1169.89" gradientUnits="userSpaceOnUse">
<stop stop-color="#D4FFC4"/>
<stop offset="1" stop-color="#63FF55"/>
</linearGradient>
<linearGradient id="paint5_linear_269_510" x1="273.059" y1="0" x2="273.059" y2="1169.89" gradientUnits="userSpaceOnUse">
<stop stop-color="#D4FFC4"/>
<stop offset="1" stop-color="#63FF55"/>
</linearGradient>
<linearGradient id="paint6_linear_269_510" x1="273.059" y1="0" x2="273.059" y2="1169.89" gradientUnits="userSpaceOnUse">
<stop stop-color="#D4FFC4"/>
<stop offset="1" stop-color="#63FF55"/>
</linearGradient>
</defs>
</svg>
