<svg width="133" height="249" viewBox="0 0 133 249" fill="none" xmlns="http://www.w3.org/2000/svg">
<path d="M75.0792 127.024C76.6506 129.382 78.8505 135.864 75.0792 142.936C79.41 169.231 78.1358 222.665 78.1358 243.88C76.0603 249.659 70.1229 248.008 66.2393 249.01C62.3557 248.008 56.4192 249.659 54.3438 243.88C54.3438 222.665 53.0696 169.231 57.4004 142.936C53.6291 135.864 55.829 129.382 57.4004 127.024H75.0792Z" fill="url(#paint0_linear_186_713)"/>
<path d="M125.979 66.2397C125.979 99.2331 99.2331 125.979 66.2397 125.979C33.2464 125.979 6.5 99.2331 6.5 66.2397C6.5 33.2464 33.2464 6.5 66.2397 6.5C99.2331 6.5 125.979 33.2464 125.979 66.2397Z" fill="#DEF6FF" fill-opacity="0.52"/>
<path d="M119.479 66.2402C119.479 36.8369 95.6435 13.0003 66.2402 13C36.8367 13 13 36.8367 13 66.2402C13.0003 95.6435 36.8369 119.479 66.2402 119.479C95.6434 119.479 119.479 95.6434 119.479 66.2402ZM132.479 66.2402C132.479 102.823 102.823 132.479 66.2402 132.479C29.6572 132.479 0.000263887 102.823 0 66.2402C0 29.657 29.657 0 66.2402 0C102.823 0.000263921 132.479 29.6572 132.479 66.2402Z" fill="url(#paint1_linear_186_713)"/>
<defs>
<linearGradient id="paint0_linear_186_713" x1="72.9553" y1="127.024" x2="72.9553" y2="249.01" gradientUnits="userSpaceOnUse">
<stop stop-color="#686969"/>
<stop offset="0.5" stop-color="#C2C7C9"/>
<stop offset="1" stop-color="#8C969A"/>
</linearGradient>
<linearGradient id="paint1_linear_186_713" x1="66.2397" y1="6.5" x2="66.2397" y2="125.979" gradientUnits="userSpaceOnUse">
<stop stop-color="#D0D3D4"/>
<stop offset="1" stop-color="#8A989E"/>
</linearGradient>
</defs>
</svg>
