<svg width="180" height="250" viewBox="0 0 180 250" fill="none" xmlns="http://www.w3.org/2000/svg">
<path d="M179.734 247.515C179.734 248.652 178.813 249.573 177.675 249.573H2.05882C0.920216 249.573 0 248.652 0 247.515V2.05734C0 0.920957 0.920216 0 2.05882 0H177.675C178.813 0 179.734 0.920957 179.734 2.05734V247.515Z" fill="#E9ECED"/>
<path d="M55.7123 169.186H26.2031V159.333H55.7123V169.186Z" fill="#FF6BA1"/>
<path d="M153.919 168.302H60.3573V165.421H153.919V168.302Z" fill="#FF6BA1"/>
<path d="M122.087 162.215H60.3573V159.333H122.087V162.215Z" fill="#FF6BA1"/>
<path d="M80.9408 57.3629C68.0031 61.2814 60.3145 74.7853 63.714 87.9984C65.6293 95.4385 70.6715 101.259 77.0722 104.425C71.5502 113.774 66.0283 123.124 60.5062 132.472C46.9489 125.048 36.3685 112.259 32.2123 96.1072C24.3265 65.4737 42.4777 34.2712 72.8321 25.8583L80.9408 57.3629Z" fill="#FF6BA1"/>
<path d="M55.6537 208.221H26.1453V198.368H55.6537V208.221Z" fill="#0032B2"/>
<path d="M153.919 207.778H60.3573V204.897H153.919V207.778Z" fill="#0032B2"/>
<path d="M122.087 201.691H60.3573V198.808H122.087V201.691Z" fill="#0032B2"/>
<path d="M121.698 34.3451C132.549 41.9851 140.851 53.3632 144.42 67.2255C144.458 67.3772 144.486 67.5278 144.525 67.6788L113.022 75.7875C112.985 75.6365 112.956 75.4853 112.918 75.3342C111.593 70.1854 108.766 65.8161 105.034 62.5616C110.589 53.1567 116.143 43.75 121.698 34.3451Z" fill="#0032B2"/>
<path d="M55.6537 221.232H26.1453V211.38H55.6537V221.232Z" fill="#D4A94A"/>
<path d="M153.919 220.789H60.3573V217.908H153.919V220.789Z" fill="#D4A94A"/>
<path d="M122.087 214.703H60.3573V211.821H122.087V214.703Z" fill="#D4A94A"/>
<path d="M145.137 70.4008C145.837 73.912 146.188 77.4212 146.237 80.8917H113.702C113.678 80.1108 113.619 79.3253 113.52 78.5384L145.137 70.4008Z" fill="#D4A94A"/>
<path d="M55.6537 182.198H26.1453V172.345H55.6537V182.198Z" fill="#CF88FF"/>
<path d="M153.919 181.755H60.3573V178.873H153.919V181.755Z" fill="#CF88FF"/>
<path d="M122.087 175.667H60.3573V172.786H122.087V175.667Z" fill="#CF88FF"/>
<path d="M113.627 83.6808H146.209C145.35 108.7 128.228 131.215 102.755 137.771C88.8939 141.338 74.9206 139.565 62.9868 133.755L79.6525 105.535C84.3068 107.231 89.4987 107.593 94.6468 106.268C105.411 103.497 112.782 94.1848 113.627 83.6808Z" fill="#CF88FF"/>
<path d="M55.6537 195.209H26.1453V185.357H55.6537V195.209Z" fill="#00D5D5"/>
<path d="M153.919 194.767H60.3573V191.885H153.919V194.767Z" fill="#00D5D5"/>
<path d="M122.087 188.679H60.3573V185.798H122.087V188.679Z" fill="#00D5D5"/>
<path d="M75.5345 25.1798C91.138 21.6412 106.776 24.7929 119.378 32.7919C113.858 42.1376 108.338 51.4827 102.819 60.8292C97.3942 57.0611 90.5376 55.4092 83.6491 56.7018L75.5345 25.1798Z" fill="#00D5D5"/>
</svg>
