<svg width="292" height="293" viewBox="0 0 292 293" fill="none" xmlns="http://www.w3.org/2000/svg">
<path d="M279.338 146.377C279.338 143.806 279.262 141.25 279.118 138.711L291.892 135C291.399 128.598 290.494 122.316 289.209 116.175L275.913 116.211C274.751 111.189 273.306 106.276 271.593 101.489L282.803 94.3306C280.537 88.3706 277.89 82.599 274.896 77.041L262.143 80.8248C259.616 76.3639 256.846 72.055 253.84 67.9309L262.574 57.9084C258.728 52.85 254.564 48.0487 250.111 43.5372L238.944 50.7572C235.283 47.1942 231.413 43.8413 227.361 40.7129L232.919 28.6301C227.832 24.868 222.491 21.4246 216.933 18.3324L208.254 28.4056C203.749 26.0231 199.093 23.8904 194.302 22.0257L196.232 8.86385C190.32 6.7022 184.229 4.91351 177.987 3.51948L172.494 15.6312C167.526 14.6282 162.461 13.9004 157.312 13.4695L155.458 0.304151C152.315 0.101383 149.143 0 145.946 0C142.752 0 139.58 0.101383 136.438 0.304151L134.584 13.4695C129.435 13.904 124.366 14.6318 119.401 15.6312L113.909 3.51948C107.666 4.91351 101.576 6.7022 95.663 8.86385L97.5929 22.0257C92.8025 23.8904 88.1461 26.0231 83.6418 28.4056L74.9625 18.3324C69.4009 21.4246 64.0602 24.8644 58.9729 28.6301L64.5309 40.7129C60.4792 43.8377 56.6121 47.1906 52.9478 50.7572L41.7846 43.5372C37.3274 48.0487 33.1634 52.85 29.3217 57.9084L38.0552 67.9309C35.0498 72.055 32.2763 76.3603 29.7525 80.8248L16.9998 77.041C14.0054 82.599 11.3586 88.3706 9.09193 94.3306L20.3021 101.489C18.5931 106.276 17.1448 111.189 15.9825 116.211L2.68658 116.175C1.39756 122.316 0.492437 128.602 0 135L12.7743 138.711C12.6331 141.25 12.5571 143.802 12.5571 146.377C12.5571 148.951 12.6331 151.504 12.7743 154.042L0 157.757C0.492437 164.155 1.39756 170.441 2.68658 176.582L15.9788 176.546C17.1411 181.572 18.5894 186.481 20.2985 191.272L9.08828 198.43C11.3549 204.39 14.0054 210.162 16.9998 215.72L29.7525 211.936C32.2763 216.401 35.0498 220.706 38.0552 224.834L29.3217 234.856C33.1634 239.914 37.3274 244.716 41.7846 249.227L52.9478 242.007C56.6085 245.57 60.4756 248.923 64.5309 252.052L58.9729 264.134C64.0602 267.9 69.3973 271.34 74.9625 274.432L83.6418 264.359C88.1425 266.745 92.8025 268.874 97.5929 270.739L95.663 283.901C101.576 286.062 107.666 287.855 113.909 289.249L119.401 277.133C124.366 278.136 129.435 278.864 134.584 279.299L136.438 292.464C139.58 292.663 142.752 292.768 145.946 292.768C149.143 292.768 152.315 292.667 155.458 292.464L157.312 279.299C162.461 278.864 167.53 278.136 172.494 277.133L177.987 289.249C184.226 287.855 190.32 286.062 196.232 283.901L194.302 270.739C199.093 268.874 203.753 266.741 208.254 264.359L216.933 274.432C222.494 271.343 227.835 267.9 232.919 264.134L227.361 252.052C231.413 248.927 235.28 245.57 238.944 242.007L250.111 249.227C254.564 244.716 258.728 239.914 262.574 234.856L253.84 224.834C256.846 220.706 259.619 216.404 262.143 211.936L274.896 215.72C277.89 210.162 280.54 204.39 282.807 198.43L271.597 191.272C273.31 186.481 274.754 181.572 275.917 176.546L289.212 176.582C290.501 170.441 291.407 164.155 291.896 157.757L279.121 154.042C279.266 151.504 279.338 148.948 279.338 146.377ZM145.95 217.15C106.924 217.15 75.1762 185.399 75.1762 146.373C75.1762 107.348 106.931 75.5999 145.957 75.5999C184.982 75.6035 216.73 107.351 216.726 146.377C216.726 185.406 184.975 217.154 145.95 217.15Z" fill="url(#paint0_linear_187_934)"/>
<path d="M145.95 264.189C80.9878 264.185 28.1377 211.331 28.1414 146.37C28.145 81.4078 80.9987 28.5613 145.96 28.5613C210.922 28.565 263.769 81.4186 263.765 146.38C263.765 211.342 210.908 264.192 145.95 264.189ZM145.96 34.2534C84.1343 34.2497 33.837 84.5471 33.8334 146.37C33.8298 208.192 84.1235 258.493 145.95 258.497C207.776 258.497 258.073 208.203 258.077 146.38C258.077 84.5579 207.783 34.257 145.96 34.2534Z" fill="url(#paint1_linear_187_934)"/>
<path d="M145.95 243.72C92.2743 243.72 48.6067 200.045 48.6104 146.37C48.6104 92.6904 92.2816 49.0265 145.957 49.0301C199.633 49.0337 243.3 92.7049 243.297 146.38C243.293 200.056 199.625 243.724 145.95 243.72ZM145.957 54.9031C95.5186 54.8995 54.4798 95.9311 54.4798 146.373C54.4762 196.812 95.5113 237.851 145.95 237.854C196.388 237.854 237.427 196.819 237.427 146.38C237.431 95.9455 196.396 54.9068 145.957 54.9031Z" fill="#A9ABAE"/>
<path d="M145.95 243.72C92.2743 243.72 48.6067 200.045 48.6104 146.37C48.6104 92.6904 92.2816 49.0265 145.957 49.0301C199.633 49.0337 243.3 92.7049 243.297 146.38C243.293 200.056 199.625 243.724 145.95 243.72ZM145.957 54.9031C95.5186 54.8995 54.4798 95.9311 54.4798 146.373C54.4762 196.812 95.5113 237.851 145.95 237.854C196.388 237.854 237.427 196.819 237.427 146.38C237.431 95.9455 196.396 54.9068 145.957 54.9031Z" fill="#A9ABAE"/>
<defs>
<linearGradient id="paint0_linear_187_934" x1="265.462" y1="385.395" x2="14.4976" y2="-116.533" gradientUnits="userSpaceOnUse">
<stop stop-color="#465053"/>
<stop offset="0.2005" stop-color="#878D8F"/>
<stop offset="0.3705" stop-color="#B7BABB"/>
<stop offset="0.4997" stop-color="#D5D6D6"/>
<stop offset="0.573" stop-color="#E0E0E0"/>
<stop offset="0.632" stop-color="#D6D7D8"/>
<stop offset="0.7314" stop-color="#BCBFC2"/>
<stop offset="0.8582" stop-color="#92989E"/>
<stop offset="0.8764" stop-color="#8B9298"/>
</linearGradient>
<linearGradient id="paint1_linear_187_934" x1="52.3826" y1="-21.7204" x2="298.112" y2="419.728" gradientUnits="userSpaceOnUse">
<stop stop-color="#273032"/>
<stop offset="0.1575" stop-color="#646B6C"/>
<stop offset="0.3435" stop-color="#A6AAAB"/>
<stop offset="0.5001" stop-color="#D6D8D8"/>
<stop offset="0.6192" stop-color="#F4F4F4"/>
<stop offset="0.6868" stop-color="white"/>
<stop offset="0.7533" stop-color="#F5F6F6"/>
<stop offset="0.865" stop-color="#DBDCDD"/>
<stop offset="0.9728" stop-color="#BCBEC0"/>
</linearGradient>
</defs>
</svg>
