<svg width="300" height="300" viewBox="0 0 300 300" fill="none" xmlns="http://www.w3.org/2000/svg">
<path d="M298.632 162.09C298.972 157.967 299.156 153.802 299.156 149.592C299.156 145.382 298.972 141.217 298.632 137.094L280.81 133.682C280.005 126.97 278.7 120.413 276.929 114.052L292.097 104.073C289.542 96.0663 286.335 88.3543 282.528 80.9964L264.744 84.6684C261.45 78.8341 257.733 73.2775 253.62 68.0402L263.807 53.0293C258.413 46.6605 252.503 40.7464 246.134 35.3563L231.126 45.5394C225.889 41.4266 220.329 37.7129 214.498 34.4157L218.17 16.6283C210.812 12.8278 203.1 9.61739 195.093 7.06293L185.118 22.23C178.753 20.4599 172.197 19.1515 165.484 18.3463L162.073 0.52408C157.949 0.183949 153.785 0 149.578 0C145.368 0 141.203 0.183949 137.08 0.52408L133.672 18.3463C126.959 19.1515 120.403 20.4565 114.041 22.23L104.063 7.06293C96.0559 9.61739 88.3405 12.8243 80.986 16.6283L84.6581 34.4157C78.8273 37.7129 73.2671 41.4266 68.0298 45.5394L53.0224 35.3563C46.6501 40.7464 40.7395 46.6605 35.3495 53.0293L45.5361 68.0402C41.4232 73.2775 37.706 78.8376 34.4123 84.6684L16.6283 80.9964C12.8244 88.3543 9.6174 96.0698 7.06295 104.073L22.2301 114.052C20.46 120.413 19.1515 126.97 18.3463 133.682L0.524083 137.094C0.183952 141.217 0 145.382 0 149.592C0 153.802 0.183952 157.967 0.524083 162.09L18.3463 165.502C19.1515 172.214 20.4566 178.77 22.2301 185.132L7.06295 195.11C9.6174 203.117 12.8244 210.833 16.6283 218.187L34.4123 214.515C37.706 220.35 41.4232 225.906 45.5361 231.144L35.3495 246.151C40.7395 252.52 46.6536 258.434 53.0258 263.824L68.0333 253.637C73.2706 257.75 78.8307 261.467 84.6615 264.761L80.9895 282.549C88.3475 286.352 96.0629 289.559 104.066 292.114L114.045 276.95C120.407 278.72 126.963 280.029 133.675 280.834L137.087 298.656C141.21 298.996 145.375 299.18 149.585 299.18C153.795 299.18 157.96 298.996 162.08 298.656L165.491 280.834C172.204 280.029 178.76 278.724 185.122 276.95L195.1 292.114C203.107 289.559 210.823 286.352 218.177 282.549L214.505 264.761C220.336 261.467 225.896 257.75 231.133 253.637L246.141 263.824C252.509 258.434 258.424 252.52 263.814 246.151L253.627 231.144C257.74 225.906 261.457 220.346 264.751 214.515L282.535 218.187C286.339 210.829 289.546 203.117 292.1 195.11L276.933 185.132C278.707 178.77 280.012 172.214 280.813 165.502L298.632 162.09ZM72.8333 157.283C68.5851 157.283 65.1387 153.837 65.1387 149.592C65.1387 145.344 68.5851 141.897 72.8333 141.897C77.0815 141.897 80.5279 145.344 80.5279 149.592C80.5279 153.84 77.0849 157.283 72.8333 157.283ZM149.571 65.156C153.819 65.156 157.266 68.5989 157.266 72.8471C157.266 77.0988 153.819 80.5417 149.571 80.5417C145.323 80.5417 141.877 77.0988 141.877 72.8471C141.877 68.6024 145.323 65.156 149.571 65.156ZM149.571 234.021C145.323 234.021 141.877 230.578 141.877 226.326C141.877 222.075 145.323 218.632 149.571 218.632C153.819 218.632 157.266 222.075 157.266 226.326C157.266 230.578 153.823 234.021 149.571 234.021ZM149.571 174.179C135.99 174.179 124.981 163.169 124.981 149.592C124.981 136.011 135.99 125.002 149.571 125.002C163.152 125.002 174.158 136.011 174.158 149.592C174.161 163.169 163.152 174.179 149.571 174.179ZM226.309 157.283C222.061 157.283 218.614 153.837 218.614 149.592C218.614 145.344 222.061 141.897 226.309 141.897C230.557 141.897 234.004 145.344 234.004 149.592C234.004 153.84 230.561 157.283 226.309 157.283Z" fill="url(#paint0_linear_187_883)"/>
<path d="M149.568 247.609C95.5178 247.605 51.5507 203.631 51.5507 149.585C51.5541 95.5353 95.5282 51.5681 149.578 51.5716C203.628 51.5716 247.595 95.5457 247.595 149.595C247.591 203.645 203.617 247.612 149.568 247.609ZM149.578 56.3057C98.1382 56.3022 56.2882 98.1488 56.2882 149.585C56.2847 201.021 98.1313 242.875 149.568 242.878C201.007 242.882 242.857 201.035 242.857 149.595C242.861 98.1557 201.014 56.3057 149.578 56.3057Z" fill="url(#paint1_linear_187_883)"/>
<path d="M149.571 208.476C117.103 208.476 90.687 182.057 90.6904 149.589C90.6904 117.116 117.11 90.7042 149.578 90.7042C182.047 90.7076 208.463 117.123 208.459 149.592C208.456 182.061 182.04 208.476 149.571 208.476ZM149.575 94.2547C119.064 94.2512 94.2375 119.074 94.2375 149.589C94.2341 180.096 119.057 204.922 149.568 204.922C180.079 204.922 204.902 180.103 204.902 149.592C204.909 119.081 180.086 94.2547 149.575 94.2547Z" fill="url(#paint2_linear_187_883)"/>
<path d="M149.571 264.855V262.925C212.062 262.925 262.901 212.086 262.904 149.595C262.908 119.372 251.104 90.9263 229.676 69.4945C208.247 48.0628 179.801 36.2588 149.575 36.2588C87.0806 36.2588 36.2379 87.0981 36.2344 149.589C36.2309 179.812 48.0349 208.261 69.4632 229.689C90.8949 251.121 119.338 262.925 149.564 262.925L149.568 263.89L149.571 264.855C118.827 264.851 89.8919 252.85 68.0992 231.053C46.3065 209.257 34.3047 180.325 34.3047 149.585C34.3082 86.0325 86.0151 34.3256 149.571 34.3256C180.315 34.3256 209.243 46.3309 231.04 68.1271C252.832 89.9232 264.834 118.855 264.834 149.595C264.834 213.148 213.127 264.855 149.571 264.855Z" fill="#A9ABAE"/>
<path d="M149.907 255.623V253.846C207.393 253.846 254.161 207.081 254.164 149.595C254.164 121.791 243.311 95.622 223.597 75.9083C203.884 56.1911 177.718 45.3346 149.914 45.3312C92.4247 45.3312 45.6532 92.0992 45.6532 149.585C45.6532 177.385 56.5097 203.555 76.2199 223.272C95.9337 242.986 122.103 253.846 149.903 253.846L149.91 254.734V255.623C121.627 255.623 95.0139 244.579 74.9635 224.528C54.9131 204.478 43.8728 177.861 43.8762 149.588C43.8797 91.124 91.446 43.5576 149.91 43.5576C178.193 43.5576 204.807 54.6015 224.854 74.6519C244.901 94.7023 255.941 121.316 255.941 149.595C255.934 208.06 208.368 255.623 149.907 255.623Z" fill="#A9ABAE"/>
<path d="M149.241 255.623V253.846C206.727 253.846 253.495 207.081 253.498 149.595C253.498 121.791 242.645 95.622 222.932 75.9083C203.218 56.1911 177.052 45.3346 149.248 45.3312C91.7588 45.3312 44.9873 92.0992 44.9838 149.585C44.9838 177.385 55.8367 203.555 75.5504 223.272C95.2642 242.986 121.437 253.846 149.241 253.846V254.734V255.623C120.958 255.623 94.3445 244.579 74.2975 224.528C54.2471 204.478 43.2067 177.861 43.2102 149.588C43.2137 91.124 90.78 43.5576 149.244 43.5576C177.524 43.5576 204.138 54.6015 224.188 74.6519C244.238 94.7023 255.275 121.316 255.275 149.595C255.268 208.06 207.702 255.623 149.241 255.623Z" fill="#A9ABAE"/>
<defs>
<linearGradient id="paint0_linear_187_883" x1="262.691" y1="345.247" x2="-9.82422" y2="-126.109" gradientUnits="userSpaceOnUse">
<stop stop-color="#465053"/>
<stop offset="0.2005" stop-color="#878D8F"/>
<stop offset="0.3705" stop-color="#B7BABB"/>
<stop offset="0.4997" stop-color="#D5D6D6"/>
<stop offset="0.573" stop-color="#E0E0E0"/>
<stop offset="0.632" stop-color="#D6D7D8"/>
<stop offset="0.7314" stop-color="#BCBFC2"/>
<stop offset="0.8582" stop-color="#92989E"/>
<stop offset="0.8764" stop-color="#8B9298"/>
</linearGradient>
<linearGradient id="paint1_linear_187_883" x1="88.4584" y1="62.2583" x2="219.05" y2="248.875" gradientUnits="userSpaceOnUse">
<stop stop-color="#273032"/>
<stop offset="0.1314" stop-color="#646B6C"/>
<stop offset="0.2866" stop-color="#A6AAAB"/>
<stop offset="0.4173" stop-color="#D6D8D8"/>
<stop offset="0.5167" stop-color="#F4F4F4"/>
<stop offset="0.573" stop-color="white"/>
<stop offset="0.6661" stop-color="#F5F6F6"/>
<stop offset="0.8221" stop-color="#DBDCDD"/>
<stop offset="0.9728" stop-color="#BCBEC0"/>
</linearGradient>
<linearGradient id="paint2_linear_187_883" x1="117.394" y1="103.704" x2="205.377" y2="229.168" gradientUnits="userSpaceOnUse">
<stop stop-color="#273032"/>
<stop offset="0.1314" stop-color="#646B6C"/>
<stop offset="0.2866" stop-color="#A6AAAB"/>
<stop offset="0.4173" stop-color="#D6D8D8"/>
<stop offset="0.5167" stop-color="#F4F4F4"/>
<stop offset="0.573" stop-color="white"/>
<stop offset="0.6197" stop-color="#F5F6F6"/>
<stop offset="0.6983" stop-color="#DBDDDF"/>
<stop offset="0.7985" stop-color="#B1B5B9"/>
<stop offset="0.8764" stop-color="#8B9298"/>
</linearGradient>
</defs>
</svg>
