<svg width="289" height="289" viewBox="0 0 289 289" fill="none" xmlns="http://www.w3.org/2000/svg">
<path d="M288.164 146.003C288.242 140.305 287.982 134.649 287.392 129.056L264.398 126.572C263.713 121.894 262.758 117.278 261.546 112.744L281.687 101.391C280.002 95.9764 277.997 90.6762 275.696 85.5128L253.064 90.2524C250.978 86.0344 248.65 81.9402 246.095 77.9927L261.744 60.9707C258.488 56.3517 254.958 51.9185 251.167 47.7005L231.11 59.2006C227.837 55.8399 224.359 52.6585 220.689 49.6759L230.315 28.6476C225.81 25.2804 221.083 22.1641 216.148 19.3184L200.622 36.4611C196.489 34.2934 192.202 32.3474 187.763 30.6426L190.416 7.69112C187.75 6.78818 185.051 5.95047 182.299 5.19423C179.551 4.43798 176.8 3.77625 174.049 3.1895L164.59 24.2699C159.902 23.4648 155.221 22.9399 150.563 22.6857L145.99 0.0145732C140.292 -0.0669188 134.636 0.193881 129.043 0.783884L126.559 23.7777C121.878 24.459 117.265 25.4173 112.731 26.6299L101.381 6.48833C95.9666 8.17359 90.6664 10.1783 85.503 12.4796L90.2426 35.1116C86.0246 37.1978 81.9304 39.5252 77.983 42.0808L60.9609 26.4311C56.3419 29.6875 51.9088 33.221 47.6907 37.0087L59.1941 57.0656C55.8334 60.3415 52.652 63.8196 49.6693 67.4868L28.6411 57.8576C25.2739 62.3625 22.1543 67.0924 19.3119 72.0243L36.4546 87.5501C34.2902 91.6834 32.3409 95.9699 30.6393 100.413L7.68788 97.7595C6.78495 100.426 5.94719 103.125 5.19094 105.873C4.4347 108.621 3.77301 111.372 3.18627 114.126L24.2666 123.586C23.4582 128.277 22.9367 132.954 22.6857 137.616L0.0145752 142.186C-0.0669169 147.884 0.193833 153.539 0.783836 159.13L23.7776 161.613C24.4622 166.294 25.414 170.91 26.6299 175.441L6.48505 186.791C8.17357 192.206 10.175 197.509 12.4763 202.669L35.1084 197.93C37.1946 202.144 39.522 206.238 42.0776 210.189L26.4246 227.208C29.6842 231.827 33.2145 236.26 37.0022 240.478L57.059 228.978C60.3318 232.339 63.8099 235.52 67.4803 238.503L57.8544 259.531C62.3593 262.898 67.0858 266.015 72.021 268.86L87.5501 251.718C91.6834 253.882 95.9699 255.831 100.41 257.533L97.7529 280.488C100.419 281.39 103.122 282.228 105.87 282.984C108.617 283.741 111.369 284.402 114.12 284.989L123.579 263.909C128.267 264.717 132.948 265.235 137.606 265.49L142.179 288.164C147.877 288.242 153.533 287.985 159.126 287.392L161.61 264.398C166.288 263.713 170.907 262.758 175.438 261.546L186.788 281.69C192.202 280.002 197.503 277.997 202.663 275.699L197.923 253.067C202.141 250.981 206.235 248.653 210.186 246.095L227.205 261.748C231.824 258.488 236.257 254.958 240.478 251.17L228.978 231.11C232.339 227.837 235.52 224.359 238.503 220.689L259.534 230.315C262.902 225.81 266.018 221.083 268.864 216.148L251.721 200.619C253.885 196.485 255.831 192.199 257.536 187.759L280.488 190.416C281.39 187.75 282.231 185.047 282.988 182.299C283.744 179.551 284.406 176.8 284.992 174.049L263.915 164.59C264.724 159.902 265.242 155.221 265.496 150.563L288.164 146.003ZM145.954 44.0366C172.178 44.5158 195.931 55.0804 213.511 72.0177L163.827 121.702C159.002 117.441 152.789 114.72 145.954 114.299V44.0366ZM142.218 44.0366V114.299C135.379 114.723 129.17 117.441 124.345 121.702L74.6613 72.0177C92.2408 55.0804 115.997 44.5191 142.218 44.0366ZM72.021 74.6614L121.705 124.342C117.445 129.17 114.723 135.379 114.302 142.215H44.0399C44.519 115.994 55.0837 92.2376 72.021 74.6614ZM72.021 213.511C55.0837 195.935 44.5191 172.178 44.0366 145.957H114.299C114.72 152.793 117.445 159.002 121.702 163.83L72.021 213.511ZM142.218 244.136C115.994 243.653 92.2408 233.089 74.6613 216.154L124.345 166.47C129.17 170.731 135.379 173.453 142.218 173.876V244.136ZM144.086 158.129C136.335 158.129 130.05 151.844 130.05 144.093C130.05 136.341 136.335 130.06 144.086 130.06C151.838 130.06 158.122 136.341 158.122 144.093C158.122 151.844 151.838 158.129 144.086 158.129ZM145.954 244.136V173.873C152.789 173.449 159.002 170.727 163.827 166.467L213.511 216.151C195.935 233.088 172.178 243.653 145.954 244.136ZM216.154 213.511L166.47 163.827C170.731 159.002 173.453 152.793 173.876 145.957H244.139C243.653 172.178 233.092 195.935 216.154 213.511ZM173.873 142.218C173.453 135.383 170.731 129.17 166.467 124.345L216.151 74.6646C233.088 92.2408 243.653 115.997 244.132 142.222H173.873V142.218Z" fill="url(#paint0_linear_187_913)"/>
<path d="M144.448 258.713V256.796C206.587 256.796 257.145 206.242 257.145 144.102C257.148 114.048 245.413 85.7606 224.105 64.4488C202.796 43.137 174.508 31.3989 144.454 31.3989C82.3116 31.3989 31.7506 81.9533 31.7474 144.093C31.7474 174.147 43.4789 202.435 64.7908 223.75C86.0993 245.061 114.387 256.796 144.441 256.8L144.448 257.758V258.713C113.875 258.713 85.1051 246.776 63.4347 225.102C41.7611 203.429 29.8274 174.655 29.8274 144.089C29.8307 80.8939 81.2489 29.4756 144.448 29.4756C175.017 29.4756 203.787 41.4126 225.461 63.0895C247.131 84.7632 259.068 113.533 259.065 144.099C259.061 207.298 207.643 258.713 144.448 258.713Z" fill="#A9ABAE"/>
<path d="M143.727 258.713V256.796C205.867 256.796 256.424 206.242 256.428 144.102C256.431 114.048 244.696 85.7606 223.388 64.4488C202.079 43.137 173.791 31.3989 143.734 31.3989C81.5913 31.3989 31.0336 81.9533 31.0303 144.093C31.0303 174.147 42.7652 202.435 64.0737 223.75C85.3823 245.061 113.67 256.793 143.727 256.796L143.731 257.758V258.713C113.161 258.713 84.3913 246.776 62.7177 225.102C41.044 203.429 29.1104 174.655 29.1104 144.089C29.1136 80.8939 80.5319 29.4756 143.731 29.4756C174.303 29.4756 203.07 41.4126 224.744 63.0895C246.417 84.7632 258.351 113.533 258.348 144.099C258.341 207.298 206.926 258.713 143.727 258.713Z" fill="#A9ABAE"/>
<path d="M144.445 168.074C131.224 168.074 120.467 157.317 120.467 144.093C120.467 130.871 131.224 120.118 144.445 120.118C157.666 120.118 168.423 130.875 168.423 144.096C168.423 157.317 157.666 168.074 144.445 168.074ZM144.448 121.562C132.026 121.562 121.917 131.67 121.914 144.093C121.914 156.519 132.022 166.627 144.445 166.627C156.871 166.627 166.976 156.522 166.979 144.096C166.979 131.67 156.871 121.565 144.448 121.562Z" fill="#A9ABAE"/>
<path d="M144.086 168.074C130.865 168.074 120.111 157.317 120.111 144.093C120.111 130.871 130.868 120.118 144.089 120.118C157.307 120.118 168.064 130.875 168.064 144.096C168.064 157.317 157.307 168.074 144.086 168.074ZM144.089 121.562C131.663 121.562 121.555 131.67 121.555 144.093C121.555 156.519 131.663 166.627 144.086 166.627C156.509 166.627 166.62 156.522 166.62 144.096C166.62 131.67 156.512 121.565 144.089 121.562Z" fill="#A9ABAE"/>
<defs>
<linearGradient id="paint0_linear_187_913" x1="271.925" y1="323.284" x2="6.24286" y2="-49.1164" gradientUnits="userSpaceOnUse">
<stop stop-color="#465053"/>
<stop offset="0.2005" stop-color="#878D8F"/>
<stop offset="0.3705" stop-color="#B7BABB"/>
<stop offset="0.4997" stop-color="#D5D6D6"/>
<stop offset="0.573" stop-color="#E0E0E0"/>
<stop offset="0.632" stop-color="#D6D7D8"/>
<stop offset="0.7314" stop-color="#BCBFC2"/>
<stop offset="0.8582" stop-color="#92989E"/>
<stop offset="0.8764" stop-color="#8B9298"/>
</linearGradient>
</defs>
</svg>
