<svg width="119" height="114" viewBox="0 0 119 114" fill="none" xmlns="http://www.w3.org/2000/svg">
<path d="M55.8792 1.90282C57.4413 -0.634264 61.1294 -0.63427 62.6915 1.90282L80.3369 30.5616C80.8901 31.46 81.7757 32.1035 82.8011 32.3519L115.51 40.2776C118.406 40.9793 119.545 44.4869 117.615 46.7565L95.8117 72.3943C95.1282 73.198 94.7899 74.2392 94.8704 75.2911L97.4402 108.848C97.6677 111.819 94.684 113.987 91.929 112.852L60.8083 100.039C59.8328 99.637 58.738 99.637 57.7625 100.039L26.6418 112.852C23.8868 113.987 20.9031 111.819 21.1305 108.848L23.7003 75.2911C23.7809 74.2392 23.4426 73.198 22.7591 72.3943L0.95571 46.7565C-0.974487 44.4869 0.165191 40.9793 3.06082 40.2776L35.7697 32.3519C36.795 32.1035 37.6807 31.46 38.2338 30.5616L55.8792 1.90282Z" fill="url(#paint0_linear_187_956)"/>
<defs>
<linearGradient id="paint0_linear_187_956" x1="59.2854" y1="8.23809" x2="59.2854" y2="106.264" gradientUnits="userSpaceOnUse">
<stop stop-color="#FFD900"/>
<stop offset="1" stop-color="#FFEB7B"/>
</linearGradient>
</defs>
</svg>
