<svg width="84" height="81" viewBox="0 0 84 81" fill="none" xmlns="http://www.w3.org/2000/svg">
<path d="M38.4772 1.90282C40.0393 -0.634265 43.7273 -0.63427 45.2894 1.90282L56.8367 20.6573C57.3899 21.5557 58.2755 22.1992 59.3009 22.4477L80.7058 27.6343C83.6015 28.336 84.7411 31.8435 82.8109 34.1132L68.5426 50.8908C67.8591 51.6945 67.5208 52.7356 67.6014 53.7876L69.2831 75.7477C69.5106 78.7184 66.5269 80.8862 63.7718 79.7518L43.4062 71.3664C42.4307 70.9647 41.3359 70.9647 40.3604 71.3664L19.9948 79.7518C17.2397 80.8862 14.256 78.7184 14.4835 75.7476L16.1652 53.7876C16.2458 52.7356 15.9075 51.6945 15.224 50.8908L0.95566 34.1132C-0.974537 31.8435 0.165149 28.336 3.06078 27.6343L24.4657 22.4477C25.4911 22.1992 26.3767 21.5557 26.9299 20.6573L38.4772 1.90282Z" fill="url(#paint0_linear_187_965)"/>
<defs>
<linearGradient id="paint0_linear_187_965" x1="41.8833" y1="4.93586" x2="41.8833" y2="75.6848" gradientUnits="userSpaceOnUse">
<stop stop-color="#FFD900"/>
<stop offset="1" stop-color="#FFEB7B"/>
</linearGradient>
</defs>
</svg>
