<svg width="84" height="81" viewBox="0 0 84 81" fill="none" xmlns="http://www.w3.org/2000/svg">
<path d="M38.4774 1.90282C40.0395 -0.634265 43.7276 -0.63427 45.2897 1.90282L56.837 20.6573C57.3901 21.5557 58.2758 22.1992 59.3011 22.4477L80.7061 27.6343C83.6017 28.336 84.7414 31.8435 82.8112 34.1132L68.5429 50.8908C67.8594 51.6945 67.5211 52.7356 67.6016 53.7876L69.2833 75.7477C69.5108 78.7184 66.5271 80.8862 63.7721 79.7518L43.4065 71.3664C42.4309 70.9647 41.3362 70.9647 40.3606 71.3664L19.995 79.7518C17.24 80.8862 14.2563 78.7184 14.4838 75.7476L16.1654 53.7876C16.246 52.7356 15.9077 51.6945 15.2242 50.8908L0.955904 34.1132C-0.974293 31.8435 0.165393 28.336 3.06102 27.6343L24.466 22.4477C25.4913 22.1992 26.377 21.5557 26.9301 20.6573L38.4774 1.90282Z" fill="url(#paint0_linear_187_969)"/>
<defs>
<linearGradient id="paint0_linear_187_969" x1="41.8835" y1="4.93586" x2="41.8835" y2="75.6848" gradientUnits="userSpaceOnUse">
<stop stop-color="#FFD900"/>
<stop offset="1" stop-color="#FFEB7B"/>
</linearGradient>
</defs>
</svg>
